<svg height="31" viewBox="0 0 128 31" width="128" xmlns="http://www.w3.org/2000/svg" xmlns:xlink="http://www.w3.org/1999/xlink"><mask id="a" fill="#fff"><path d="m0 32h128.404988v-31.0144h-128.404988z" fill="#fff" fill-rule="evenodd"/></mask><g fill="none" fill-rule="evenodd" transform="translate(0 -1)"><path d="m56.5008096 1-5.0987194 10.2048597-11.4020902 1.63604 8.2495952 7.9435101-1.9478436 11.2155902 10.199058-5.2951403 10.1974388 5.2951403-1.9462245-11.2155902 8.2479761-7.9435101-11.4020902-1.63604z" fill="#dfd4ba"/><g fill="#1d1d1b"><path d="m118 11 .414573 3.0957361h2.660176v10.9042639h4.045226v-10.9042639h2.880025v-3.0957361z"/><path d="m16.412025 19.9656c0 1.5392-.4644 2.28-1.673775 2.28s-1.67055-.7408-1.67055-2.28v-8.6336h-4.1538v9.2c0 3.0416 1.873725 5.1216 5.82435 5.1216 3.9522375 0 5.8259625-2.28 5.8259625-5.1216v-9.2h-4.1521875z"/><path d="m27.17514 11.3312h-4.150575v13.9232h8.5785l.4257-3.16h-4.853625z"/><path d="m33.5706375 25.2544h4.1521875v-13.9232h-4.1521875z" mask="url(#a)"/><path d="m78.9704137 11.3312h-4.1505749v13.9232h8.3414624l-.5176125-3.16h-3.673275z" mask="url(#a)"/><path d="m88.6155825 11.3312h-4.150575v13.9232h9.0283875l.4240875-3.16h-5.3019z" mask="url(#a)"/><path d="m103.800495 14.19216.4257-2.8608h-9.2154375v13.9232h9.1122375v-2.8816h-4.96005v-2.8h4.071563v-2.7808h-4.071563v-2.6z" mask="url(#a)"/><path d="m117.136676 15.75232c0-3.0608-2.015625-4.4208-6.025912-4.4208h-5.142263v13.9232h4.152188v-11.1024h.886875c1.230337 0 1.8963.5008 1.8963 1.6 0 1.2208-.8514 1.7552-2.434875 2.4288l3.942562 8.36 3.726488-1.5888-3.262088-5.5536c1.55445-.9424 2.260725-1.9664 2.260725-3.6464" mask="url(#a)"/><path d="m45.265455 21.71008 1.3690125-3.4528 1.364175 3.4528zm1.3690125-11.5648-7.1804625 15.2352 3.7297125 1.5904.841725-2.128h5.2132125l.841725 2.128 3.7297125-1.5904z" mask="url(#a)"/><path d="m65.1633825 21.71008 1.3690125-3.4528 1.364175 3.4528zm1.3690125-11.5648-7.1804625 15.2352 3.7297125 1.5904.841725-2.128h5.214825l.8401125 2.128 3.731325-1.5904z" mask="url(#a)"/><path d="m.04386 11.3312.4240875 3.08h1.757625v9.6352c0 2.8672-2.1365625 4.0544-2.22525 4.1024l1.9398375 3.5376c2.0043375-1.0832 4.344075-3.7328 4.344075-7.64v-12.7152z" mask="url(#a)"/></g></g></svg>