<?xml version="1.0" encoding="UTF-8"?>
<svg xmlns="http://www.w3.org/2000/svg" xmlns:xlink="http://www.w3.org/1999/xlink" viewBox="0 0 64 64" width="64px" height="64px">
<g id="surface151882689">
<path style=" stroke:none;fill-rule:nonzero;fill:rgb(0%,0%,0%);fill-opacity:1;" d="M 25.132812 0.789062 C 11.519531 0.789062 0.441406 11.867188 0.441406 25.480469 C 0.441406 39.09375 11.519531 50.171875 25.132812 50.171875 C 30.039062 50.171875 34.605469 48.714844 38.453125 46.238281 L 54.425781 62.210938 C 56.480469 64.265625 59.8125 64.265625 61.863281 62.210938 C 63.917969 60.15625 63.917969 56.828125 61.863281 54.773438 L 45.890625 38.800781 C 48.371094 34.953125 49.824219 30.386719 49.824219 25.480469 C 49.824219 11.867188 38.746094 0.789062 25.132812 0.789062 Z M 25.132812 10.664062 C 33.300781 10.664062 39.949219 17.3125 39.949219 25.480469 C 39.949219 33.648438 33.300781 40.292969 25.132812 40.292969 C 16.964844 40.292969 10.316406 33.648438 10.316406 25.480469 C 10.316406 17.3125 16.964844 10.664062 25.132812 10.664062 Z M 25.132812 10.664062 "/>
</g>
</svg>
